<?xml version="1.0" encoding="utf-8"?>
<svg version="1.1" xmlns:xlink="http://www.w3.org/1999/xlink" width="126px" height="28px" viewBox="43 176  126 28" xmlns="http://www.w3.org/2000/svg">
  <path d="M 44 178  A 1 1 0 0 1 45 177 L 167 177  A 1 1 0 0 1 168 178 L 168 202  A 1 1 0 0 1 167 203 L 45 203  A 1 1 0 0 1 44 202 L 44 178  Z " fill-rule="nonzero" fill="#f0f0f0" stroke="none" />
  <path d="M 43.5 178  A 1.5 1.5 0 0 1 45 176.5 L 167 176.5  A 1.5 1.5 0 0 1 168.5 178 L 168.5 202  A 1.5 1.5 0 0 1 167 203.5 L 45 203.5  A 1.5 1.5 0 0 1 43.5 202 L 43.5 178  Z " stroke-width="1" stroke="#aaaaaa" fill="none" stroke-opacity="0.533333333333333" />
</svg>