<?xml version="1.0" encoding="utf-8"?>
<svg version="1.1" xmlns:xlink="http://www.w3.org/1999/xlink" width="117px" height="28px" viewBox="176 176  117 28" xmlns="http://www.w3.org/2000/svg">
  <path d="M 177 178  A 1 1 0 0 1 178 177 L 291 177  A 1 1 0 0 1 292 178 L 292 202  A 1 1 0 0 1 291 203 L 178 203  A 1 1 0 0 1 177 202 L 177 178  Z " fill-rule="nonzero" fill="#f0f0f0" stroke="none" />
  <path d="M 176.5 178  A 1.5 1.5 0 0 1 178 176.5 L 291 176.5  A 1.5 1.5 0 0 1 292.5 178 L 292.5 202  A 1.5 1.5 0 0 1 291 203.5 L 178 203.5  A 1.5 1.5 0 0 1 176.5 202 L 176.5 178  Z " stroke-width="1" stroke="#aaaaaa" fill="none" stroke-opacity="0.533333333333333" />
</svg>