<?xml version="1.0" encoding="utf-8"?>
<svg version="1.1" xmlns:xlink="http://www.w3.org/1999/xlink" width="117px" height="28px" viewBox="300 176  117 28" xmlns="http://www.w3.org/2000/svg">
  <path d="M 301 178  A 1 1 0 0 1 302 177 L 415 177  A 1 1 0 0 1 416 178 L 416 202  A 1 1 0 0 1 415 203 L 302 203  A 1 1 0 0 1 301 202 L 301 178  Z " fill-rule="nonzero" fill="#ffffff" stroke="none" />
  <path d="M 300.5 178  A 1.5 1.5 0 0 1 302 176.5 L 415 176.5  A 1.5 1.5 0 0 1 416.5 178 L 416.5 202  A 1.5 1.5 0 0 1 415 203.5 L 302 203.5  A 1.5 1.5 0 0 1 300.5 202 L 300.5 178  Z " stroke-width="1" stroke="#aaaaaa" fill="none" stroke-opacity="0.533333333333333" />
</svg>