<?xml version="1.0" encoding="utf-8"?>
<svg version="1.1" xmlns:xlink="http://www.w3.org/1999/xlink" width="12px" height="12px" viewBox="381 954  12 12" xmlns="http://www.w3.org/2000/svg">
  <path d="M 387 954  C 390.36 954  393 956.64  393 960  C 393 963.36  390.36 966  387 966  C 383.64 966  381 963.36  381 960  C 381 956.64  383.64 954  387 954  Z " fill-rule="nonzero" fill="#ffffff" stroke="none" />
  <path d="M 387 954.5  C 390.08 954.5  392.5 956.92  392.5 960  C 392.5 963.08  390.08 965.5  387 965.5  C 383.92 965.5  381.5 963.08  381.5 960  C 381.5 956.92  383.92 954.5  387 954.5  Z " stroke-width="1" stroke="#797979" fill="none" />
  <path d="M 387 963  C 385.32 963  384 961.68  384 960  C 384 958.32  385.32 957  387 957  C 388.68 957  390 958.32  390 960  C 390 961.68  388.68 963  387 963  " fill-rule="nonzero" fill="#797979" stroke="none" />
</svg>