<?xml version="1.0" encoding="utf-8"?>
<svg version="1.1" xmlns:xlink="http://www.w3.org/1999/xlink" width="12px" height="12px" viewBox="148 302  12 12" xmlns="http://www.w3.org/2000/svg">
  <path d="M 154 302  C 157.36 302  160 304.64  160 308  C 160 311.36  157.36 314  154 314  C 150.64 314  148 311.36  148 308  C 148 304.64  150.64 302  154 302  Z " fill-rule="nonzero" fill="#ffffff" stroke="none" />
  <path d="M 154 302.5  C 157.08 302.5  159.5 304.92  159.5 308  C 159.5 311.08  157.08 313.5  154 313.5  C 150.92 313.5  148.5 311.08  148.5 308  C 148.5 304.92  150.92 302.5  154 302.5  Z " stroke-width="1" stroke="#797979" fill="none" />
  <path d="M 154 311  C 152.32 311  151 309.68  151 308  C 151 306.32  152.32 305  154 305  C 155.68 305  157 306.32  157 308  C 157 309.68  155.68 311  154 311  " fill-rule="nonzero" fill="#797979" stroke="none" />
</svg>