<?xml version="1.0" encoding="utf-8"?>
<svg version="1.1" xmlns:xlink="http://www.w3.org/1999/xlink" width="10px" height="10px" xmlns="http://www.w3.org/2000/svg">
  <g transform="matrix(1 0 0 1 -1194 -193 )">
    <path d="M 9.59564453125 5.50745442708333  C 9.59509603114442 5.1165233457543  9.27835286584634 4.79973068160245  8.887421875 4.79912109375  L 8.51521484375 4.79912109375  C 8.52372647778658 4.75502606731102  8.52802534424273 4.71022150226368  8.52805338541667 4.6653125  L 8.52805338541667 0.771360677083333  C 8.52762640228896 0.380335978049838  8.21074475111683 0.0634543268777034  7.81972005208333 0.0630273437500001  L 2.15670572916667 0.0630273437500001  C 1.76568103013317 0.0634543268777044  1.44879937896104 0.380335978049839  1.44837239583333 0.771360677083333  L 1.44837239583333 4.66542317708333  C 1.44840043700727 4.71033217934702  1.45269930346342 4.75513674439435  1.4612109375 4.79923177083333  L 1.112578125 4.79923177083333  C 0.721603911387299 4.79978042182219  0.404793442655523 5.11659089055396  0.404244791666667 5.50756510416667  L 0.404244791666667 7.61197916666667  C 0.404793442655522 8.00295338027937  0.721603911387299 8.31976384901114  1.112578125 8.3203125  L 2.0349609375 8.3203125  L 2.0349609375 9.27313151041666  C 2.0353879206277 9.66415620945016  2.35226957179984 9.9810378606223  2.74329427083333 9.98146484375  L 7.26633463541667 9.98146484375  C 7.65735933445016 9.9810378606223  7.9742409856223 9.66415620945016  7.97466796875 9.27313151041667  L 7.97466796875 8.3203125  L 8.88731119791667 8.3203125  C 9.27828541152937 8.31976384901115  9.59509588026114 8.00295338027937  9.59564453125 7.61197916666667  L 9.59564453125 5.50745442708333  Z M 2.15670572916667 4.66542317708333  L 2.15670572916667 0.771360677083333  L 7.81972005208333 0.771360677083333  L 7.81972005208333 4.66542317708333  L 2.15670572916667 4.66542317708333  Z M 7.26633463541667 7.16871744791667  L 7.26633463541667 9.27291015625  L 2.74329427083333 9.27291015625  L 2.74329427083333 7.16871744791667  L 7.26633463541667 7.16871744791667  Z M 8.88775390625 5.50778645833333  L 8.887421875 7.61197916666667  L 7.97466796875 7.61197916666667  L 7.97466796875 7.16927083333333  C 7.9742409856223 6.77824613429984  7.65735933445016 6.4613644831277  7.26633463541667 6.4609375  L 2.74329427083333 6.4609375  C 2.35226957179984 6.4613644831277  2.0353879206277 6.77824613429984  2.0349609375 7.16927083333333  L 2.0349609375 7.61197916666667  L 1.11224609375 7.61197916666667  L 1.11224609375 5.50778645833333  L 8.88775390625 5.50778645833333  Z " fill-rule="nonzero" fill="#efe82e" stroke="none" transform="matrix(1 0 0 1 1194 193 )" />
  </g>
</svg>