<?xml version="1.0" encoding="utf-8"?>
<svg version="1.1" xmlns:xlink="http://www.w3.org/1999/xlink" width="10px" height="9px" xmlns="http://www.w3.org/2000/svg">
  <g transform="matrix(1 0 0 1 -1108 -194 )">
    <path d="M 0.467032958984375 8.20879121023996  L 9.53296704101563 8.20879121023996  C 9.76064977676062 8.20879120082311  9.94514782229555 8.37483944180454  9.94514782229555 8.57967032749721  C 9.94514782229555 8.78450121318989  9.76064977676062 8.95054945417132  9.53305990376876 8.95054945417132  L 0.467032958984378 8.95054944475447  C 0.239350223232887 8.95054945417132  0.0548521776979603 8.78450121318989  0.0548521776979603 8.57967032749721  C 0.0548521776979603 8.37483944180454  0.239350223232887 8.20879120082311  0.466940096224746 8.20879120082311  Z M 8.1763736328125 1.94909341238839  L 6.6483516531808 0.574615377371652  L 7.23186812220982 0.0494505552455366  L 8.75906593889509 1.42467033691406  L 8.1763736328125 1.94909341238839  Z M 3.57252746930804 5.96497252022879  L 1.70329669363839 4.28340658761161  L 2.28681318359375 3.75824176548549  L 4.15521977539062 5.44054944475447  L 3.57252746930804 5.96497252022879  Z " fill-rule="nonzero" fill="#efe82e" stroke="none" transform="matrix(1 0 0 1 1108 194 )" />
  </g>
</svg>