<?xml version="1.0" encoding="utf-8"?>
<svg version="1.1" xmlns:xlink="http://www.w3.org/1999/xlink" width="76px" height="28px" viewBox="1552 252  76 28" xmlns="http://www.w3.org/2000/svg">
  <path d="M 1553 258  A 5 5 0 0 1 1558 253 L 1622 253  A 5 5 0 0 1 1627 258 L 1627 274  A 5 5 0 0 1 1622 279 L 1558 279  A 5 5 0 0 1 1553 274 L 1553 258  Z " fill-rule="nonzero" fill="#f0f0f0" stroke="none" />
  <path d="M 1552.5 258  A 5.5 5.5 0 0 1 1558 252.5 L 1622 252.5  A 5.5 5.5 0 0 1 1627.5 258 L 1627.5 274  A 5.5 5.5 0 0 1 1622 279.5 L 1558 279.5  A 5.5 5.5 0 0 1 1552.5 274 L 1552.5 258  Z " stroke-width="1" stroke="#aaaaaa" fill="none" stroke-opacity="0.533333333333333" />
</svg>