<?xml version="1.0" encoding="utf-8"?>
<svg version="1.1" xmlns:xlink="http://www.w3.org/1999/xlink" width="76px" height="28px" viewBox="44 119  76 28" xmlns="http://www.w3.org/2000/svg">
  <path d="M 45 121  A 1 1 0 0 1 46 120 L 118 120  A 1 1 0 0 1 119 121 L 119 145  A 1 1 0 0 1 118 146 L 46 146  A 1 1 0 0 1 45 145 L 45 121  Z " fill-rule="nonzero" fill="#f0f0f0" stroke="none" />
  <path d="M 44.5 121  A 1.5 1.5 0 0 1 46 119.5 L 118 119.5  A 1.5 1.5 0 0 1 119.5 121 L 119.5 145  A 1.5 1.5 0 0 1 118 146.5 L 46 146.5  A 1.5 1.5 0 0 1 44.5 145 L 44.5 121  Z " stroke-width="1" stroke="#aaaaaa" fill="none" stroke-opacity="0.533333333333333" />
</svg>