<?xml version="1.0" encoding="utf-8"?>
<svg version="1.1" xmlns:xlink="http://www.w3.org/1999/xlink" width="92px" height="28px" viewBox="220 119  92 28" xmlns="http://www.w3.org/2000/svg">
  <path d="M 221 121  A 1 1 0 0 1 222 120 L 310 120  A 1 1 0 0 1 311 121 L 311 145  A 1 1 0 0 1 310 146 L 222 146  A 1 1 0 0 1 221 145 L 221 121  Z " fill-rule="nonzero" fill="#ffffff" stroke="none" />
  <path d="M 220.5 121  A 1.5 1.5 0 0 1 222 119.5 L 310 119.5  A 1.5 1.5 0 0 1 311.5 121 L 311.5 145  A 1.5 1.5 0 0 1 310 146.5 L 222 146.5  A 1.5 1.5 0 0 1 220.5 145 L 220.5 121  Z " stroke-width="1" stroke="#aaaaaa" fill="none" stroke-opacity="0.533333333333333" />
</svg>