<?xml version="1.0" encoding="utf-8"?>
<svg version="1.1" xmlns:xlink="http://www.w3.org/1999/xlink" width="80px" height="28px" viewBox="128 119  80 28" xmlns="http://www.w3.org/2000/svg">
  <path d="M 129 121  A 1 1 0 0 1 130 120 L 206 120  A 1 1 0 0 1 207 121 L 207 145  A 1 1 0 0 1 206 146 L 130 146  A 1 1 0 0 1 129 145 L 129 121  Z " fill-rule="nonzero" fill="#f0f0f0" stroke="none" />
  <path d="M 128.5 121  A 1.5 1.5 0 0 1 130 119.5 L 206 119.5  A 1.5 1.5 0 0 1 207.5 121 L 207.5 145  A 1.5 1.5 0 0 1 206 146.5 L 130 146.5  A 1.5 1.5 0 0 1 128.5 145 L 128.5 121  Z " stroke-width="1" stroke="#aaaaaa" fill="none" stroke-opacity="0.533333333333333" />
</svg>