<?xml version="1.0" encoding="utf-8"?>
<svg version="1.1" xmlns:xlink="http://www.w3.org/1999/xlink" width="88px" height="28px" xmlns="http://www.w3.org/2000/svg">
  <defs>
    <mask fill="white" id="clip25">
      <path d="M 88 24  L 88 4  C 88 1.76  85.58 0  82.5 0  L 0 0  L 0 28  L 82.5 28  C 85.58 28  88 26.24  88 24  Z " fill-rule="evenodd" />
    </mask>
  </defs>
  <g transform="matrix(1 0 0 1 -319 -120 )">
    <path d="M 88 24  L 88 4  C 88 1.76  85.58 0  82.5 0  L 0 0  L 0 28  L 82.5 28  C 85.58 28  88 26.24  88 24  Z " fill-rule="nonzero" fill="#ffffff" stroke="none" transform="matrix(1 0 0 1 319 120 )" />
    <path d="M 88 24  L 88 4  C 88 1.76  85.58 0  82.5 0  L 0 0  L 0 28  L 82.5 28  C 85.58 28  88 26.24  88 24  Z " stroke-width="2" stroke="#d9d9d9" fill="none" transform="matrix(1 0 0 1 319 120 )" mask="url(#clip25)" />
  </g>
</svg>