<?xml version="1.0" encoding="utf-8"?>
<svg version="1.1" xmlns:xlink="http://www.w3.org/1999/xlink" width="159px" height="28px" xmlns="http://www.w3.org/2000/svg">
  <g transform="matrix(1 0 0 1 -1263 -165 )">
    <path d="M 1264 170  A 4 4 0 0 1 1268 166 L 1417 166  A 4 4 0 0 1 1421 170 L 1421 188  A 4 4 0 0 1 1417 192 L 1268 192  A 4 4 0 0 1 1264 188 L 1264 170  Z " fill-rule="nonzero" fill="#ffffff" stroke="none" />
    <path d="M 1263.5 170  A 4.5 4.5 0 0 1 1268 165.5 L 1417 165.5  A 4.5 4.5 0 0 1 1421.5 170 L 1421.5 188  A 4.5 4.5 0 0 1 1417 192.5 L 1268 192.5  A 4.5 4.5 0 0 1 1263.5 188 L 1263.5 170  Z " stroke-width="1" stroke="#108de9" fill="none" stroke-opacity="0.811764705882353" />
  </g>
</svg>