<?xml version="1.0" encoding="utf-8"?>
<svg version="1.1" xmlns:xlink="http://www.w3.org/1999/xlink" width="159px" height="28px" xmlns="http://www.w3.org/2000/svg">
  <g transform="matrix(1 0 0 1 -754 -165 )">
    <path d="M 755 170  A 4 4 0 0 1 759 166 L 908 166  A 4 4 0 0 1 912 170 L 912 188  A 4 4 0 0 1 908 192 L 759 192  A 4 4 0 0 1 755 188 L 755 170  Z " fill-rule="nonzero" fill="#ffffff" stroke="none" />
    <path d="M 754.5 170  A 4.5 4.5 0 0 1 759 165.5 L 908 165.5  A 4.5 4.5 0 0 1 912.5 170 L 912.5 188  A 4.5 4.5 0 0 1 908 192.5 L 759 192.5  A 4.5 4.5 0 0 1 754.5 188 L 754.5 170  Z " stroke-width="1" stroke="#108de9" fill="none" stroke-opacity="0.811764705882353" />
  </g>
</svg>