<?xml version="1.0" encoding="utf-8"?>
<svg version="1.1" xmlns:xlink="http://www.w3.org/1999/xlink" width="13px" height="12px" xmlns="http://www.w3.org/2000/svg">
  <g transform="matrix(1 0 0 1 -1180 -187 )">
    <path d="M 9.8515625 10.8515625  C 9.95052083333333 10.7526041666667  10 10.6354166666667  10 10.5  C 10 10.3645833333333  9.95052083333333 10.2473958333333  9.8515625 10.1484375  C 9.75260416666667 10.0494791666667  9.63541666666667 10  9.5 10  C 9.36458333333333 10  9.24739583333333 10.0494791666667  9.1484375 10.1484375  C 9.04947916666667 10.2473958333333  9 10.3645833333333  9 10.5  C 9 10.6354166666667  9.04947916666667 10.7526041666667  9.1484375 10.8515625  C 9.24739583333333 10.9505208333333  9.36458333333333 11  9.5 11  C 9.63541666666667 11  9.75260416666667 10.9505208333333  9.8515625 10.8515625  Z M 11.8515625 10.8515625  C 11.9505208333333 10.7526041666667  12 10.6354166666667  12 10.5  C 12 10.3645833333333  11.9505208333333 10.2473958333333  11.8515625 10.1484375  C 11.7526041666667 10.0494791666667  11.6354166666667 10  11.5 10  C 11.3645833333333 10  11.2473958333333 10.0494791666667  11.1484375 10.1484375  C 11.0494791666667 10.2473958333333  11 10.3645833333333  11 10.5  C 11 10.6354166666667  11.0494791666667 10.7526041666667  11.1484375 10.8515625  C 11.2473958333333 10.9505208333333  11.3645833333333 11  11.5 11  C 11.6354166666667 11  11.7526041666667 10.9505208333333  11.8515625 10.8515625  Z M 12.78125 8.21875  C 12.9270833333333 8.36458333333333  13 8.54166666666667  13 8.75  L 13 11.25  C 13 11.4583333333333  12.9270833333333 11.6354166666667  12.78125 11.78125  C 12.6354166666667 11.9270833333333  12.4583333333333 12  12.25 12  L 0.75 12  C 0.541666666666667 12  0.364583333333333 11.9270833333333  0.21875 11.78125  C 0.0729166666666667 11.6354166666667  0 11.4583333333333  0 11.25  L 0 8.75  C 0 8.54166666666667  0.0729166666666667 8.36458333333333  0.21875 8.21875  C 0.364583333333333 8.07291666666667  0.541666666666667 8  0.75 8  L 4.3828125 8  L 5.4375 9.0625  C 5.73958333333333 9.35416666666667  6.09375 9.5  6.5 9.5  C 6.90625 9.5  7.26041666666667 9.35416666666667  7.5625 9.0625  L 8.625 8  L 12.25 8  C 12.4583333333333 8  12.6354166666667 8.07291666666667  12.78125 8.21875  Z M 10 4  C 10.21875 4  10.3723958333333 4.1015625  10.4609375 4.3046875  C 10.5494791666667 4.51822916666667  10.5130208333333 4.70052083333333  10.3515625 4.8515625  L 6.8515625 8.3515625  C 6.7578125 8.45052083333333  6.640625 8.5  6.5 8.5  C 6.359375 8.5  6.2421875 8.45052083333333  6.1484375 8.3515625  L 2.6484375 4.8515625  C 2.48697916666667 4.70052083333333  2.45052083333333 4.51822916666667  2.5390625 4.3046875  C 2.62760416666667 4.1015625  2.78125 4  3 4  L 5 4  L 5 0.5  C 5 0.364583333333332  5.04947916666667 0.247395833333332  5.1484375 0.1484375  C 5.24739583333333 0.0494791666666674  5.36458333333333 0  5.5 0  L 7.5 0  C 7.63541666666667 0  7.75260416666667 0.0494791666666674  7.8515625 0.1484375  C 7.95052083333333 0.247395833333332  8 0.364583333333332  8 0.5  L 8 4  L 10 4  Z " fill-rule="nonzero" fill="#ffca9a" stroke="none" transform="matrix(1 0 0 1 1180 187 )" />
  </g>
</svg>