<?xml version="1.0" encoding="utf-8"?>
<svg version="1.1" xmlns:xlink="http://www.w3.org/1999/xlink" width="13px" height="12px" xmlns="http://www.w3.org/2000/svg">
  <g transform="matrix(1 0 0 1 -1136 -187 )">
    <path d="M 9.8515625 10.8975  C 9.95052083333333 10.8025  10 10.69  10 10.56  C 10 10.43  9.95052083333333 10.3175  9.8515625 10.2225  C 9.75260416666667 10.1275  9.63541666666667 10.08  9.5 10.08  C 9.36458333333333 10.08  9.24739583333333 10.1275  9.1484375 10.2225  C 9.04947916666667 10.3175  9 10.43  9 10.56  C 9 10.69  9.04947916666667 10.8025  9.1484375 10.8975  C 9.24739583333333 10.9925  9.36458333333333 11.04  9.5 11.04  C 9.63541666666667 11.04  9.75260416666667 10.9925  9.8515625 10.8975  Z M 11.8515625 10.8975  C 11.9505208333333 10.8025  12 10.69  12 10.56  C 12 10.43  11.9505208333333 10.3175  11.8515625 10.2225  C 11.7526041666667 10.1275  11.6354166666667 10.08  11.5 10.08  C 11.3645833333333 10.08  11.2473958333333 10.1275  11.1484375 10.2225  C 11.0494791666667 10.3175  11 10.43  11 10.56  C 11 10.69  11.0494791666667 10.8025  11.1484375 10.8975  C 11.2473958333333 10.9925  11.3645833333333 11.04  11.5 11.04  C 11.6354166666667 11.04  11.7526041666667 10.9925  11.8515625 10.8975  Z M 12.78125 8.37  C 12.9270833333333 8.51  13 8.68  13 8.88  L 13 11.28  C 13 11.48  12.9270833333333 11.65  12.78125 11.79  C 12.6354166666667 11.93  12.4583333333333 12  12.25 12  L 0.75 12  C 0.541666666666667 12  0.364583333333333 11.93  0.21875 11.79  C 0.0729166666666667 11.65  0 11.48  0 11.28  L 0 8.88  C 0 8.68  0.0729166666666667 8.51  0.21875 8.37  C 0.364583333333333 8.23  0.541666666666667 8.16  0.75 8.16  L 4.0859375 8.16  C 4.1953125 8.44  4.37890625 8.67  4.63671875 8.85  C 4.89453125 9.03  5.18229166666667 9.12  5.5 9.12  L 7.5 9.12  C 7.81770833333333 9.12  8.10546875 9.03  8.36328125 8.85  C 8.62109375 8.67  8.8046875 8.44  8.9140625 8.16  L 12.25 8.16  C 12.4583333333333 8.16  12.6354166666667 8.23  12.78125 8.37  Z M 10.3515625 3.5025  C 10.5130208333333 3.6525  10.5494791666667 3.825  10.4609375 4.02  C 10.3723958333333 4.22  10.21875 4.32  10 4.32  L 8 4.32  L 8 7.68  C 8 7.81  7.95052083333333 7.9225  7.8515625 8.0175  C 7.75260416666667 8.1125  7.63541666666667 8.16  7.5 8.16  L 5.5 8.16  C 5.36458333333333 8.16  5.24739583333333 8.1125  5.1484375 8.0175  C 5.04947916666667 7.9225  5 7.81  5 7.68  L 5 4.32  L 3 4.32  C 2.78125 4.32  2.62760416666667 4.22  2.5390625 4.02  C 2.45052083333333 3.825  2.48697916666667 3.6525  2.6484375 3.5025  L 6.1484375 0.1425  C 6.2421875 0.0474999999999994  6.359375 0  6.5 0  C 6.640625 0  6.7578125 0.0474999999999994  6.8515625 0.1425  L 10.3515625 3.5025  Z " fill-rule="nonzero" fill="#ffca9a" stroke="none" transform="matrix(1 0 0 1 1136 187 )" />
  </g>
</svg>