<?xml version="1.0" encoding="utf-8"?>
<svg version="1.1" xmlns:xlink="http://www.w3.org/1999/xlink" width="12px" height="12px" xmlns="http://www.w3.org/2000/svg">
  <g transform="matrix(1 0 0 1 -1224 -185 )">
    <path d="M 4.91842105263158 6.56516129032257  C 4.91842105263158 6.30967741935483  4.70526315789473 6.10064516129032  4.44473684210527 6.10064516129032  C 4.18421052631579 6.10064516129032  3.97105263157895 6.30967741935483  3.97105263157895 6.56516129032257  L 3.97105263157895 11.4658064516129  C 3.97105263157895 11.7212903225806  4.18421052631579 11.9303225806452  4.44473684210527 11.9303225806452  C 4.70526315789473 11.9303225806452  4.91842105263158 11.7212903225806  4.91842105263158 11.4658064516129  L 4.91842105263158 6.56516129032257  Z M 8.3921052631579 6.56516129032257  C 8.3921052631579 6.30967741935483  8.17894736842104 6.10064516129032  7.91842105263158 6.10064516129032  C 7.6578947368421 6.10064516129032  7.44473684210527 6.30967741935483  7.44473684210527 6.56516129032257  L 7.44473684210527 11.4658064516129  C 7.44473684210527 11.7212903225806  7.6578947368421 11.9303225806452  7.91842105263158 11.9303225806452  C 8.17894736842104 11.9303225806452  8.3921052631579 11.7212903225806  8.3921052631579 11.4658064516129  L 8.3921052631579 6.56516129032257  Z M 11.928947368421 2.11354838709676  C 11.928947368421 1.85806451612903  11.7157894736842 1.64903225806452  11.4552631578947 1.64903225806452  L 0.481578947368428 1.64903225806452  C 0.221052631578948 1.64903225806452  0.00789473684210407 1.85806451612903  0.00789473684210407 2.11354838709676  C 0.00789473684210407 2.3690322580645  0.221052631578948 2.57806451612905  0.481578947368428 2.57806451612905  L 11.4552631578947 2.57806451612905  C 11.7157894736842 2.57806451612905  11.928947368421 2.3690322580645  11.928947368421 2.11354838709676  Z M 3.36315789473683 0.487741935483882  C 3.36315789473683 0.743225806451619  3.57631578947369 0.952258064516127  3.83684210526316 0.952258064516127  L 8.1 0.952258064516127  C 8.36052631578947 0.952258064516127  8.57368421052632 0.743225806451619  8.57368421052632 0.487741935483882  C 8.57368421052632 0.232258064516145  8.36052631578947 0.0232258064516145  8.1 0.0232258064516145  L 3.83684210526316 0.0232258064516145  C 3.57631578947369 0.0232258064516145  3.36315789473683 0.232258064516145  3.36315789473683 0.487741935483882  Z " fill-rule="nonzero" fill="#ffca9a" stroke="none" transform="matrix(1 0 0 1 1224 185 )" />
  </g>
</svg>