<?xml version="1.0" encoding="utf-8"?>
<svg version="1.1" xmlns:xlink="http://www.w3.org/1999/xlink" width="10px" height="11px" xmlns="http://www.w3.org/2000/svg">
  <g transform="matrix(1 0 0 1 -1225 -189 )">
    <path d="M 9.96240601503759 1.35442176870749  C 9.96240601503759 0.613605442176874  9.35338345864661 0.00748299319728168  8.60902255639097 0.00748299319728168  L 1.36842105263158 0.00748299319728168  C 0.624060150375932 0.00748299319728168  0.0150375939849731 0.613605442176874  0.0150375939849731 1.35442176870749  L 0.0150375939849731 9.63809523809525  C 0.0150375939849731 10.3789115646259  0.624060150375932 10.9850340136054  1.36842105263158 10.9850340136054  L 8.60902255639097 10.9850340136054  C 9.35338345864661 10.9850340136054  9.96240601503759 10.3789115646259  9.96240601503759 9.63809523809525  L 9.96240601503759 1.35442176870749  Z M 9.06015037593986 1.35442176870749  L 9.06015037593986 9.63809523809525  C 9.06015037593986 9.88503401360546  8.85714285714285 10.087074829932  8.60902255639097 10.087074829932  L 1.36842105263158 10.087074829932  C 1.1203007518797 10.087074829932  0.917293233082706 9.88503401360546  0.917293233082706 9.63809523809525  L 0.917293233082706 1.35442176870749  C 0.917293233082706 1.10748299319729  1.1203007518797 0.90544217687077  1.36842105263158 0.90544217687077  L 8.60902255639097 0.90544217687077  C 8.85714285714285 0.90544217687077  9.06015037593986 1.10748299319729  9.06015037593986 1.35442176870749  Z " fill-rule="nonzero" fill="#ffca9a" stroke="none" transform="matrix(1 0 0 1 1225 189 )" />
  </g>
</svg>