<?xml version="1.0" encoding="utf-8"?>
<svg version="1.1" xmlns:xlink="http://www.w3.org/1999/xlink" width="84px" height="28px" xmlns="http://www.w3.org/2000/svg">
  <defs>
    <mask fill="white" id="clip44">
      <path d="M 84 24  L 84 4  C 84 1.76  81.69 0  78.75 0  L 0 0  L 0 28  L 78.75 28  C 81.69 28  84 26.24  84 24  Z " fill-rule="evenodd" />
    </mask>
  </defs>
  <g transform="matrix(1 0 0 1 -156 -198 )">
    <path d="M 84 24  L 84 4  C 84 1.76  81.69 0  78.75 0  L 0 0  L 0 28  L 78.75 28  C 81.69 28  84 26.24  84 24  Z " fill-rule="nonzero" fill="#ffffff" stroke="none" transform="matrix(1 0 0 1 156 198 )" />
    <path d="M 84 24  L 84 4  C 84 1.76  81.69 0  78.75 0  L 0 0  L 0 28  L 78.75 28  C 81.69 28  84 26.24  84 24  Z " stroke-width="2" stroke="#d9d9d9" fill="none" transform="matrix(1 0 0 1 156 198 )" mask="url(#clip44)" />
  </g>
</svg>